<svg xmlns="http://www.w3.org/2000/svg" width="500" height="84" viewBox="0 0 283.3 45.9"><style>.st0{fill:#000000}.st1{fill:#0095DA}</style><path class="st1" d="M45.8-.14a23.18,23.18,0,0,1,20.4,12.3,15,15,0,0,0-8-5.4C55.1,3,42.8.26,34.5,2.86a22,22,0,0,1,11.3-3h0Zm20.9,13.4c-6.4-4.8-21.6-8.2-37.3-6.6-0.5.5-1,1.1-1.5,1.7,16.4-1.5,29.8,4.9,34.6,8.8l0.2,1.4c2.9,1,5.5,3.7,6,5.8,0-.5.1-1,0.1-1.5a23.27,23.27,0,0,0-2.1-9.6h0Zm2,11.3a24,24,0,0,1-2.8,9.3v0a9.15,9.15,0,0,0-4.6-4.7l0.6-1.7c-5.3-5-18.6-12.2-38-11.5l0.6-1.7c19.6-.5,33.2,3.4,44.2,10.3h0Zm-3.1,9.8A21.92,21.92,0,0,1,59.7,41a10.87,10.87,0,0,0-3.8-4l0.8-.8c-7.2-6.2-19.4-12-34-12.5V22c18.9,0.4,31.6,4.9,42.9,12.4h0Zm-6.7,7.2c-10.8-6.6-17.1-10.9-34.8-12H23.8l0.6,1.7h0.4c14.7,2.4,20.8,7.9,23.8,10.5l-1.1.4a5.29,5.29,0,0,1,2.2,3.1,20.59,20.59,0,0,0,9.2-3.7h0Zm-10.5,4c-5.2-5-13.3-7.2-20.5-8.3,0.5,0.6,1,1.1,1.5,1.7,3.4,0.2,9.7,2.5,10.2,4.4,0.1,0.6-3.1-.1-5.3-0.6a22.12,22.12,0,0,0,11.3,3A24.58,24.58,0,0,0,48.4,45.56Z"/><path class="st1" d="M23-.14a23.36,23.36,0,0,1,11.4,3,22.79,22.79,0,0,0-5,3.8H6.7A22.72,22.72,0,0,1,23-.14h0Zm4.9,8.5a20.1,20.1,0,0,0-3.5,6H1.7a25.51,25.51,0,0,1,3.5-6H27.9ZM23.8,16a23.54,23.54,0,0,0-1,6H0a23.54,23.54,0,0,1,1-6H23.8Zm-1.1,7.7a23.54,23.54,0,0,0,1,6H1a19.86,19.86,0,0,1-1-6H22.7Zm1.7,7.6a22.79,22.79,0,0,0,3.6,6H5.3a22.79,22.79,0,0,1-3.6-6H24.4Zm5,7.7a20.66,20.66,0,0,0,5,3.8,23.07,23.07,0,0,1-11.4,3A22.72,22.72,0,0,1,6.7,39H29.4Z"/><path class="st0" d="M88.1,21.06h0.2l5.4-6h4.8l-6.1,6.3,5.3,7.2h1.5v4.6H96.1v-2.8H94l-4.3-6.3-1.5,1.5v4.8h-4V15.06h4l-0.1,6h0ZM105.5,25h3.6l-1.6-4.8-0.1-1.5h-0.2l-0.2,1.5L105.5,25h0Zm-0.9,2.7-0.8,2.7H99.6l5.7-15.3h4l5.7,15.3h-4.2l-0.8-2.7h-5.4Zm12-2.7h4a2.37,2.37,0,0,0,1.1,2.3,4.56,4.56,0,0,0,2.3.5,4.48,4.48,0,0,0,2-.4,1.52,1.52,0,0,0,.9-1.6,1.49,1.49,0,0,0-.7-1.5,4.71,4.71,0,0,0-1.7-.4h-2.2v-2.6h1.8a4,4,0,0,0,1.5-.3,1.33,1.33,0,0,0,.7-1.4,1.6,1.6,0,0,0-.9-1.6,5.84,5.84,0,0,0-1.8-.4,3.56,3.56,0,0,0-1.9.5,2.92,2.92,0,0,0-.8,2.1H117a5.93,5.93,0,0,1,.7-3.1,5.18,5.18,0,0,1,2.2-1.9,9.69,9.69,0,0,1,3.6-.6H124a10,10,0,0,1,3.9.6,4.09,4.09,0,0,1,2,1.6,3.51,3.51,0,0,1,.5,2,3,3,0,0,1-.8,2.3,5,5,0,0,1-1.9,1v0.1a4.42,4.42,0,0,1,2.4,1.1,3.34,3.34,0,0,1,1,2.7v0.1a3.56,3.56,0,0,1-1.2,2.9,5.67,5.67,0,0,1-2.7,1.3,16.55,16.55,0,0,1-3.2.3,13.7,13.7,0,0,1-3.6-.4,4.84,4.84,0,0,1-2.7-1.7,6,6,0,0,1-1.1-3.5h0ZM139,25h3.6l-1.6-4.8-0.1-1.5h-0.2l-0.2,1.5L139,25h0Zm-0.9,2.7-0.8,2.7h-4.2l5.7-15.3h4l5.7,15.3h-4.2l-0.8-2.7h-5.4Zm17-6.6h0.1l5.5-6h4.8l-6.1,6.3,5.3,7.2h1.5v4.6h-3.1v-2.8H161l-4.3-6.3-1.5,1.5v4.8h-4V15.06h4v6h-0.1Zm16.4-2.5H167v-3.5h13.1v3.5h-4.5v11.9h-4V18.56h-0.1Zm15.6,2.5h7.4v3.1h-7.4V27h8.6v3.4H183V15.06h12.5v3.5h-8.4v2.5h0Zm10.1,9.3V27a4.91,4.91,0,0,0,1.1.1,3.34,3.34,0,0,0,1.5-.3,2.09,2.09,0,0,0,.8-1.4,13.11,13.11,0,0,0,.3-3.3v-6.9h11.9v15.3h-4.1V18.56h-4v5.2a9.48,9.48,0,0,1-.5,3.6,3.64,3.64,0,0,1-1.7,2.3,6.54,6.54,0,0,1-3.4.9,7.14,7.14,0,0,1-1.9-.2h0Zm23.8-9.3h7.3v3.1H221V27h8.6v3.4H217V15.06h12.5v3.5H221v2.5h0Zm15.9,0H237l5.5-6h4.8l-6.1,6.3,6.6,9.1h-5l-4.3-6.3-1.5,1.5v4.8h-4V15.16h4v5.9h-0.1Zm15.2,1.6a6.85,6.85,0,0,0,.5,2.7,3.09,3.09,0,0,0,1.2,1.5,4.06,4.06,0,0,0,1.9.4,2.82,2.82,0,0,0,2.1-.7,3.86,3.86,0,0,0,1.1-1.7,8,8,0,0,0,.3-2.3,7.8,7.8,0,0,0-.3-2.2,3.16,3.16,0,0,0-1.1-1.7,3,3,0,0,0-2.1-.7,4.14,4.14,0,0,0-1.9.5,3.09,3.09,0,0,0-1.2,1.5,7.22,7.22,0,0,0-.5,2.7h0Zm3.6,8.1a12.48,12.48,0,0,1-3.2-.5,6.42,6.42,0,0,1-3.2-2.3,8.17,8.17,0,0,1-1.5-5.3,8.17,8.17,0,0,1,1.5-5.3,6.24,6.24,0,0,1,3.2-2.3,13.94,13.94,0,0,1,3.2-.5,13.18,13.18,0,0,1,3.2.5,6.24,6.24,0,0,1,3.2,2.3,8.17,8.17,0,0,1,1.5,5.3,8.17,8.17,0,0,1-1.5,5.3,6.24,6.24,0,0,1-3.2,2.3,10,10,0,0,1-3.2.5h0Zm17.8-.4-3.6-11.7v11.7h-3.8V15.06h5.6l2.7,9.1,0.3,1.8h0l0.3-1.8,2.7-9.2h5.6v15.3h-3.8V18.56l-3.6,11.7h-2.4v0.1h0Z"/></svg>